<?xml version="1.0" encoding="UTF-8"?>
<!DOCTYPE svg PUBLIC "-//W3C//DTD SVG 1.1//EN" "http://www.w3.org/Graphics/SVG/1.1/DTD/svg11.dtd">
<svg xmlns="http://www.w3.org/2000/svg" version="1.1" width="6250px" height="6250px" style="shape-rendering:geometricPrecision; text-rendering:geometricPrecision; image-rendering:optimizeQuality; fill-rule:evenodd; clip-rule:evenodd" xmlns:xlink="http://www.w3.org/1999/xlink">
<g><path style="opacity:1" fill="#414dd5" d="M 1576.5,985.5 C 1576.5,1333.5 1576.5,1681.5 1576.5,2029.5C 1527.86,2058.64 1491.7,2098.97 1468,2150.5C 1450.78,2195.15 1447.78,2240.82 1459,2287.5C 1464.41,2314.49 1471.08,2341.16 1479,2367.5C 1486.75,2393.68 1495.09,2419.68 1504,2445.5C 1529,2516.99 1553.5,2588.66 1577.5,2660.5C 1576.5,3491.33 1576.17,4322.33 1576.5,5153.5C 1453.49,5156.5 1339.16,5126.83 1233.5,5064.5C 1233.5,3734.5 1233.5,2404.5 1233.5,1074.5C 1339.08,1011.85 1453.41,982.188 1576.5,985.5 Z"/></g>
<g><path style="opacity:1" fill="#454bd7" d="M 1576.5,985.5 C 1598.17,985.5 1619.83,985.5 1641.5,985.5C 1641.5,1325.5 1641.5,1665.5 1641.5,2005.5C 1618.62,2010.35 1596.96,2018.35 1576.5,2029.5C 1576.5,1681.5 1576.5,1333.5 1576.5,985.5 Z"/></g>
<g><path style="opacity:1" fill="#4849d7" d="M 1641.5,985.5 C 1734.17,985.5 1826.83,985.5 1919.5,985.5C 1919.5,1372.5 1919.5,1759.5 1919.5,2146.5C 1907.53,2117.57 1892.7,2090.23 1875,2064.5C 1852.04,2037.42 1823.21,2019.59 1788.5,2011C 1749.1,2000.96 1709.1,1997.63 1668.5,2001C 1659.38,2001.9 1650.38,2003.4 1641.5,2005.5C 1641.5,1665.5 1641.5,1325.5 1641.5,985.5 Z"/></g>
<g><path style="opacity:1" fill="#4d45d9" d="M 1919.5,985.5 C 2017.5,985.5 2115.5,985.5 2213.5,985.5C 2213.5,1695.83 2213.5,2406.17 2213.5,3116.5C 2135.07,2849.37 2056.91,2582.03 1979,2314.5C 1962.02,2257.39 1942.19,2201.39 1919.5,2146.5C 1919.5,1759.5 1919.5,1372.5 1919.5,985.5 Z"/></g>
<g><path style="opacity:1" fill="#5044da" d="M 2213.5,985.5 C 2246.17,985.5 2278.83,985.5 2311.5,985.5C 2311.5,1807.83 2311.5,2630.17 2311.5,3452.5C 2278.26,3340.77 2245.59,3228.77 2213.5,3116.5C 2213.5,2406.17 2213.5,1695.83 2213.5,985.5 Z"/></g>
<g><path style="opacity:1" fill="#5441db" d="M 2311.5,985.5 C 2425.83,985.5 2540.17,985.5 2654.5,985.5C 2654.17,1491.67 2654.5,1997.67 2655.5,2503.5C 2553.58,2860.75 2451.08,3219.09 2348,3578.5C 2335.52,3536.57 2323.35,3494.57 2311.5,3452.5C 2311.5,2630.17 2311.5,1807.83 2311.5,985.5 Z"/></g>
<g><path style="opacity:1" fill="#583fdd" d="M 2654.5,985.5 C 2698.17,985.5 2741.83,985.5 2785.5,985.5C 2785.17,1366 2785.5,1746.33 2786.5,2126.5C 2766.92,2154.33 2752.09,2184.66 2742,2217.5C 2711.21,2312.27 2682.38,2407.61 2655.5,2503.5C 2654.5,1997.67 2654.17,1491.67 2654.5,985.5 Z"/></g>
<g><path style="opacity:1" fill="#5b3ddd" d="M 2785.5,985.5 C 2850.83,985.5 2916.17,985.5 2981.5,985.5C 2981.5,1324.83 2981.5,1664.17 2981.5,2003.5C 2920.41,2011.54 2868.41,2037.38 2825.5,2081C 2811.54,2095.45 2798.54,2110.62 2786.5,2126.5C 2785.5,1746.33 2785.17,1366 2785.5,985.5 Z"/></g>
<g><path style="opacity:1" fill="#603adf" d="M 2981.5,985.5 C 3095.83,985.5 3210.17,985.5 3324.5,985.5C 3324.5,1380.17 3324.5,1774.83 3324.5,2169.5C 3295.61,2115.76 3255.61,2071.93 3204.5,2038C 3152.57,2010.08 3097.07,1997.58 3038,2000.5C 3026.83,2000.67 3015.67,2000.83 3004.5,2001C 2996.88,2002.31 2989.21,2003.14 2981.5,2003.5C 2981.5,1664.17 2981.5,1324.83 2981.5,985.5 Z"/></g>
<g><path style="opacity:1" fill="#6438e0" d="M 3324.5,985.5 C 3340.83,985.5 3357.17,985.5 3373.5,985.5C 3373.5,1424.83 3373.5,1864.17 3373.5,2303.5C 3363.93,2275.96 3354.43,2248.29 3345,2220.5C 3338.65,2203.28 3331.82,2186.28 3324.5,2169.5C 3324.5,1774.83 3324.5,1380.17 3324.5,985.5 Z"/></g>
<g><path style="opacity:1" fill="#6736e1" d="M 3373.5,985.5 C 3487.83,985.5 3602.17,985.5 3716.5,985.5C 3716.5,1822.17 3716.5,2658.83 3716.5,3495.5C 3613.37,3136.41 3510.54,2777.08 3408,2417.5C 3396.39,2379.51 3384.89,2341.51 3373.5,2303.5C 3373.5,1864.17 3373.5,1424.83 3373.5,985.5 Z"/></g>
<g><path style="opacity:1" fill="#6c33e3" d="M 3716.5,985.5 C 3814.83,985.5 3913.17,985.5 4011.5,985.5C 4011.17,1542.33 4011.5,2099 4012.5,2655.5C 3921.54,2963.21 3830.7,3270.88 3740,3578.5C 3731.6,3551.02 3723.76,3523.35 3716.5,3495.5C 3716.5,2658.83 3716.5,1822.17 3716.5,985.5 Z"/></g>
<g><path style="opacity:1" fill="#7031e4" d="M 4011.5,985.5 C 4027.83,985.5 4044.17,985.5 4060.5,985.5C 4060.17,1487 4060.5,1988.33 4061.5,2489.5C 4045.17,2544.82 4028.84,2600.15 4012.5,2655.5C 4011.5,2099 4011.17,1542.33 4011.5,985.5 Z"/></g>
<g><path style="opacity:1" fill="#732fe5" d="M 4060.5,985.5 C 4169.17,985.5 4277.83,985.5 4386.5,985.5C 4386.5,1323.5 4386.5,1661.5 4386.5,1999.5C 4391.69,1999.18 4396.69,1999.51 4401.5,2000.5C 4358.92,1997.57 4317.92,2004.07 4278.5,2020C 4261.21,2027.98 4245.54,2038.31 4231.5,2051C 4202.31,2077.54 4180.14,2109.04 4165,2145.5C 4157.95,2164.66 4151.28,2184 4145,2203.5C 4117.66,2299.01 4089.83,2394.35 4061.5,2489.5C 4060.5,1988.33 4060.17,1487 4060.5,985.5 Z"/></g>
<g><path style="opacity:1" fill="#782ce6" d="M 4386.5,985.5 C 4422.83,985.333 4459.17,985.5 4495.5,986C 4524.79,986.94 4553.79,990.107 4582.5,995.5C 4582.5,1360.17 4582.5,1724.83 4582.5,2089.5C 4545.41,2045.78 4498.75,2017.61 4442.5,2005C 4428.93,2002.58 4415.26,2001.08 4401.5,2000.5C 4396.69,1999.51 4391.69,1999.18 4386.5,1999.5C 4386.5,1661.5 4386.5,1323.5 4386.5,985.5 Z"/></g>
<g><path style="opacity:1" fill="#7a2be7" d="M 4582.5,995.5 C 4604.79,999.239 4626.79,1004.24 4648.5,1010.5C 4648.5,2383.17 4648.5,3755.83 4648.5,5128.5C 4626.74,5134.52 4604.74,5139.52 4582.5,5143.5C 4582.5,4249.5 4582.5,3355.5 4582.5,2461.5C 4597.53,2418.04 4610.7,2374.04 4622,2329.5C 4630,2296.64 4634.5,2263.3 4635.5,2229.5C 4635.08,2176.05 4617.41,2129.38 4582.5,2089.5C 4582.5,1724.83 4582.5,1360.17 4582.5,995.5 Z"/></g>
<g><path style="opacity:1" fill="#7b2ae8" d="M 4648.5,1010.5 C 4676.11,1018.92 4703.11,1028.92 4729.5,1040.5C 4729.5,2392.83 4729.5,3745.17 4729.5,5097.5C 4703.42,5109.98 4676.42,5120.31 4648.5,5128.5C 4648.5,3755.83 4648.5,2383.17 4648.5,1010.5 Z"/></g>
<g><path style="opacity:0.999" fill="#7f28e8" d="M 4729.5,1040.5 C 4886.4,1114.24 4996.24,1231.9 5059,1393.5C 5081.28,1454.55 5093.94,1517.55 5097,1582.5C 5097.17,2078.17 5097.33,2573.83 5097.5,3069.5C 5097.33,3565.17 5097.17,4060.83 5097,4556.5C 5086.62,4727.14 5019.79,4870.97 4896.5,4988C 4846.86,5033.5 4791.19,5070 4729.5,5097.5C 4729.5,3745.17 4729.5,2392.83 4729.5,1040.5 Z"/></g>
<g><path style="opacity:1" fill="#3e4ed5" d="M 1233.5,1074.5 C 1233.5,2404.5 1233.5,3734.5 1233.5,5064.5C 1221.95,5057.9 1210.95,5050.56 1200.5,5042.5C 1200.5,3727.17 1200.5,2411.83 1200.5,1096.5C 1210.95,1088.44 1221.95,1081.1 1233.5,1074.5 Z"/></g>
<g><path style="opacity:1" fill="#3b50d3" d="M 1200.5,1096.5 C 1200.5,2411.83 1200.5,3727.17 1200.5,5042.5C 1094.3,4969.15 1017.97,4872.15 971.5,4751.5C 971.5,3630.17 971.5,2508.83 971.5,1387.5C 1012.76,1280.08 1078.43,1190.58 1168.5,1119C 1178.79,1110.87 1189.45,1103.37 1200.5,1096.5 Z"/></g>
<g><path style="opacity:0.982" fill="#3952d3" d="M 971.5,1387.5 C 971.5,2508.83 971.5,3630.17 971.5,4751.5C 944.77,4682.48 930.937,4610.81 930,4536.5C 929.833,4047.5 929.667,3558.5 929.5,3069.5C 929.667,2580.5 929.833,2091.5 930,1602.5C 930.721,1528.15 944.554,1456.48 971.5,1387.5 Z"/></g>
<g><path style="opacity:1" fill="#fefefe" d="M 1919.5,2146.5 C 1942.19,2201.39 1962.02,2257.39 1979,2314.5C 2056.91,2582.03 2135.07,2849.37 2213.5,3116.5C 2245.59,3228.77 2278.26,3340.77 2311.5,3452.5C 2323.35,3494.57 2335.52,3536.57 2348,3578.5C 2451.08,3219.09 2553.58,2860.75 2655.5,2503.5C 2682.38,2407.61 2711.21,2312.27 2742,2217.5C 2752.09,2184.66 2766.92,2154.33 2786.5,2126.5C 2798.54,2110.62 2811.54,2095.45 2825.5,2081C 2868.41,2037.38 2920.41,2011.54 2981.5,2003.5C 2989.21,2003.14 2996.88,2002.31 3004.5,2001C 3015.67,2000.83 3026.83,2000.67 3038,2000.5C 3097.07,1997.58 3152.57,2010.08 3204.5,2038C 3255.61,2071.93 3295.61,2115.76 3324.5,2169.5C 3331.82,2186.28 3338.65,2203.28 3345,2220.5C 3354.43,2248.29 3363.93,2275.96 3373.5,2303.5C 3384.89,2341.51 3396.39,2379.51 3408,2417.5C 3510.54,2777.08 3613.37,3136.41 3716.5,3495.5C 3723.76,3523.35 3731.6,3551.02 3740,3578.5C 3830.7,3270.88 3921.54,2963.21 4012.5,2655.5C 4028.84,2600.15 4045.17,2544.82 4061.5,2489.5C 4089.83,2394.35 4117.66,2299.01 4145,2203.5C 4151.28,2184 4157.95,2164.66 4165,2145.5C 4180.14,2109.04 4202.31,2077.54 4231.5,2051C 4245.54,2038.31 4261.21,2027.98 4278.5,2020C 4317.92,2004.07 4358.92,1997.57 4401.5,2000.5C 4415.26,2001.08 4428.93,2002.58 4442.5,2005C 4498.75,2017.61 4545.41,2045.78 4582.5,2089.5C 4617.41,2129.38 4635.08,2176.05 4635.5,2229.5C 4634.5,2263.3 4630,2296.64 4622,2329.5C 4610.7,2374.04 4597.53,2418.04 4582.5,2461.5C 4516.39,2652.82 4451.06,2844.49 4386.5,3036.5C 4297.67,3294.16 4209.5,3552.16 4122,3810.5C 4101.79,3867.64 4081.29,3924.64 4060.5,3981.5C 4050.12,4007.11 4039.62,4032.77 4029,4058.5C 4023.31,4070.32 4017.48,4081.99 4011.5,4093.5C 3987.15,4133.36 3956.49,4167.86 3919.5,4197C 3884.4,4222.04 3845.4,4237.71 3802.5,4244C 3775.65,4248.02 3748.65,4249.85 3721.5,4249.5C 3677.2,4248.39 3634.54,4239.22 3593.5,4222C 3569.37,4210.86 3547.71,4196.19 3528.5,4178C 3490.08,4141.57 3460.24,4099.07 3439,4050.5C 3414.79,3987.03 3393.29,3922.7 3374.5,3857.5C 3358.78,3801.01 3342.45,3744.67 3325.5,3688.5C 3230.99,3365.12 3136.15,3041.78 3041,2718.5C 3020.53,2788.38 3000.7,2858.38 2981.5,2928.5C 2915.58,3158.28 2850.24,3388.28 2785.5,3618.5C 2760.75,3705.38 2735.91,3792.38 2711,3879.5C 2694.68,3932.46 2675.84,3984.46 2654.5,4035.5C 2637.22,4075.6 2616.72,4113.93 2593,4150.5C 2558.75,4194.74 2514.25,4223.57 2459.5,4237C 2411.07,4248.09 2362.07,4251.59 2312.5,4247.5C 2278.15,4244.33 2245.15,4235.66 2213.5,4221.5C 2165.86,4197.71 2127.03,4163.71 2097,4119.5C 2066.45,4072.07 2041.45,4021.74 2022,3968.5C 1986.75,3871.66 1952.91,3774.33 1920.5,3676.5C 1828.23,3402.01 1735.56,3127.68 1642.5,2853.5C 1621.03,2789.09 1599.36,2724.75 1577.5,2660.5C 1553.5,2588.66 1529,2516.99 1504,2445.5C 1495.09,2419.68 1486.75,2393.68 1479,2367.5C 1471.08,2341.16 1464.41,2314.49 1459,2287.5C 1447.78,2240.82 1450.78,2195.15 1468,2150.5C 1491.7,2098.97 1527.86,2058.64 1576.5,2029.5C 1596.96,2018.35 1618.62,2010.35 1641.5,2005.5C 1650.38,2003.4 1659.38,2001.9 1668.5,2001C 1709.1,1997.63 1749.1,2000.96 1788.5,2011C 1823.21,2019.59 1852.04,2037.42 1875,2064.5C 1892.7,2090.23 1907.53,2117.57 1919.5,2146.5 Z"/></g>
<g><path style="opacity:1" fill="#782ce6" d="M 4582.5,2461.5 C 4582.5,3355.5 4582.5,4249.5 4582.5,5143.5C 4559.37,5147.81 4536.03,5150.64 4512.5,5152C 4470.51,5153.37 4428.51,5153.87 4386.5,5153.5C 4386.5,4447.83 4386.5,3742.17 4386.5,3036.5C 4451.06,2844.49 4516.39,2652.82 4582.5,2461.5 Z"/></g>
<g><path style="opacity:1" fill="#454bd7" d="M 1577.5,2660.5 C 1599.36,2724.75 1621.03,2789.09 1642.5,2853.5C 1641.5,3620 1641.17,4386.67 1641.5,5153.5C 1619.83,5153.5 1598.17,5153.5 1576.5,5153.5C 1576.17,4322.33 1576.5,3491.33 1577.5,2660.5 Z"/></g>
<g><path style="opacity:1" fill="#603adf" d="M 3325.5,3688.5 C 3324.5,4176.67 3324.17,4665 3324.5,5153.5C 3210.17,5153.5 3095.83,5153.5 2981.5,5153.5C 2981.5,4411.83 2981.5,3670.17 2981.5,2928.5C 3000.7,2858.38 3020.53,2788.38 3041,2718.5C 3136.15,3041.78 3230.99,3365.12 3325.5,3688.5 Z"/></g>
<g><path style="opacity:1" fill="#4849d7" d="M 1642.5,2853.5 C 1735.56,3127.68 1828.23,3402.01 1920.5,3676.5C 1919.5,4168.67 1919.17,4661 1919.5,5153.5C 1826.83,5153.5 1734.17,5153.5 1641.5,5153.5C 1641.17,4386.67 1641.5,3620 1642.5,2853.5 Z"/></g>
<g><path style="opacity:1" fill="#5b3ddd" d="M 2981.5,2928.5 C 2981.5,3670.17 2981.5,4411.83 2981.5,5153.5C 2916.17,5153.5 2850.83,5153.5 2785.5,5153.5C 2785.5,4641.83 2785.5,4130.17 2785.5,3618.5C 2850.24,3388.28 2915.58,3158.28 2981.5,2928.5 Z"/></g>
<g><path style="opacity:1" fill="#732fe5" d="M 4386.5,3036.5 C 4386.5,3742.17 4386.5,4447.83 4386.5,5153.5C 4277.83,5153.5 4169.17,5153.5 4060.5,5153.5C 4060.5,4762.83 4060.5,4372.17 4060.5,3981.5C 4081.29,3924.64 4101.79,3867.64 4122,3810.5C 4209.5,3552.16 4297.67,3294.16 4386.5,3036.5 Z"/></g>
<g><path style="opacity:1" fill="#593fdd" d="M 2785.5,3618.5 C 2785.5,4130.17 2785.5,4641.83 2785.5,5153.5C 2741.83,5153.5 2698.17,5153.5 2654.5,5153.5C 2654.5,4780.83 2654.5,4408.17 2654.5,4035.5C 2675.84,3984.46 2694.68,3932.46 2711,3879.5C 2735.91,3792.38 2760.75,3705.38 2785.5,3618.5 Z"/></g>
<g><path style="opacity:1" fill="#4d46d9" d="M 1920.5,3676.5 C 1952.91,3774.33 1986.75,3871.66 2022,3968.5C 2041.45,4021.74 2066.45,4072.07 2097,4119.5C 2127.03,4163.71 2165.86,4197.71 2213.5,4221.5C 2213.5,4532.17 2213.5,4842.83 2213.5,5153.5C 2115.5,5153.5 2017.5,5153.5 1919.5,5153.5C 1919.17,4661 1919.5,4168.67 1920.5,3676.5 Z"/></g>
<g><path style="opacity:1" fill="#6438e0" d="M 3325.5,3688.5 C 3342.45,3744.67 3358.78,3801.01 3374.5,3857.5C 3373.5,4289.33 3373.17,4721.33 3373.5,5153.5C 3357.17,5153.5 3340.83,5153.5 3324.5,5153.5C 3324.17,4665 3324.5,4176.67 3325.5,3688.5 Z"/></g>
<g><path style="opacity:1" fill="#6736e1" d="M 3374.5,3857.5 C 3393.29,3922.7 3414.79,3987.03 3439,4050.5C 3460.24,4099.07 3490.08,4141.57 3528.5,4178C 3547.71,4196.19 3569.37,4210.86 3593.5,4222C 3634.54,4239.22 3677.2,4248.39 3721.5,4249.5C 3719.83,4249.5 3718.17,4249.5 3716.5,4249.5C 3716.5,4550.83 3716.5,4852.17 3716.5,5153.5C 3602.17,5153.5 3487.83,5153.5 3373.5,5153.5C 3373.17,4721.33 3373.5,4289.33 3374.5,3857.5 Z"/></g>
<g><path style="opacity:1" fill="#7031e4" d="M 4060.5,3981.5 C 4060.5,4372.17 4060.5,4762.83 4060.5,5153.5C 4044.17,5153.5 4027.83,5153.5 4011.5,5153.5C 4011.5,4800.17 4011.5,4446.83 4011.5,4093.5C 4017.48,4081.99 4023.31,4070.32 4029,4058.5C 4039.62,4032.77 4050.12,4007.11 4060.5,3981.5 Z"/></g>
<g><path style="opacity:0.999" fill="#5441db" d="M 2654.5,4035.5 C 2654.5,4408.17 2654.5,4780.83 2654.5,5153.5C 2540.17,5153.5 2425.83,5153.5 2311.5,5153.5C 2311.17,4851.33 2311.5,4549.33 2312.5,4247.5C 2362.07,4251.59 2411.07,4248.09 2459.5,4237C 2514.25,4223.57 2558.75,4194.74 2593,4150.5C 2616.72,4113.93 2637.22,4075.6 2654.5,4035.5 Z"/></g>
<g><path style="opacity:0.999" fill="#6d33e3" d="M 4011.5,4093.5 C 4011.5,4446.83 4011.5,4800.17 4011.5,5153.5C 3913.17,5153.5 3814.83,5153.5 3716.5,5153.5C 3716.5,4852.17 3716.5,4550.83 3716.5,4249.5C 3718.17,4249.5 3719.83,4249.5 3721.5,4249.5C 3748.65,4249.85 3775.65,4248.02 3802.5,4244C 3845.4,4237.71 3884.4,4222.04 3919.5,4197C 3956.49,4167.86 3987.15,4133.36 4011.5,4093.5 Z"/></g>
<g><path style="opacity:0.999" fill="#5044da" d="M 2213.5,4221.5 C 2245.15,4235.66 2278.15,4244.33 2312.5,4247.5C 2311.5,4549.33 2311.17,4851.33 2311.5,5153.5C 2278.83,5153.5 2246.17,5153.5 2213.5,5153.5C 2213.5,4842.83 2213.5,4532.17 2213.5,4221.5 Z"/></g>
</svg>
